<?xml version="1.0" encoding="utf-8"?>
<!-- Generator: Adobe Illustrator 16.0.3, SVG Export Plug-In . SVG Version: 6.00 Build 0)  -->
<!DOCTYPE svg PUBLIC "-//W3C//DTD SVG 1.1//EN" "http://www.w3.org/Graphics/SVG/1.1/DTD/svg11.dtd">
<svg version="1.1" id="Capa_1" xmlns="http://www.w3.org/2000/svg" xmlns:xlink="http://www.w3.org/1999/xlink" x="0px" y="0px"
	 width="50px" height="50px" viewBox="0 0 50 50" enable-background="new 0 0 50 50" xml:space="preserve">
<g>
	<g>
		<path fill="#4A5196" d="M25.166,50C11.594,50,0.551,38.958,0.551,25.386c0-13.571,11.042-24.613,24.614-24.613
			c13.571,0,24.612,11.042,24.612,24.613C49.777,38.958,38.736,50,25.166,50z M25.166,6.488c-10.421,0-18.9,8.478-18.9,18.898
			c0,10.421,8.479,18.899,18.9,18.899s18.898-8.479,18.898-18.899C44.063,14.965,35.587,6.488,25.166,6.488z"/>
	</g>
	<path fill="#4A5196" d="M30.678,25.394h-3.604v12.86h-5.347v-12.86h-2.541v-4.542h2.541v-2.939c0-2.102,1-5.394,5.395-5.394
		l3.959,0.017v4.409h-2.873c-0.472,0-1.134,0.236-1.134,1.238v2.674h4.07L30.678,25.394z"/>
</g>
</svg>
