<?xml version="1.0" encoding="utf-8"?>
<!-- Generator: Adobe Illustrator 16.0.3, SVG Export Plug-In . SVG Version: 6.00 Build 0)  -->
<!DOCTYPE svg PUBLIC "-//W3C//DTD SVG 1.1//EN" "http://www.w3.org/Graphics/SVG/1.1/DTD/svg11.dtd">
<svg version="1.1" id="Capa_1" xmlns="http://www.w3.org/2000/svg" xmlns:xlink="http://www.w3.org/1999/xlink" x="0px" y="0px"
	 width="50px" height="50px" viewBox="0 0 50 50" enable-background="new 0 0 50 50" xml:space="preserve">
<g>
	<g>
		<path fill="#E2ACEA" d="M25,49.363c-13.434,0-24.363-10.929-24.363-24.364C0.637,11.565,11.566,0.636,25,0.636
			c13.436,0,24.363,10.93,24.363,24.363C49.363,38.435,38.436,49.363,25,49.363z M25,6.292c-10.314,0-18.707,8.392-18.707,18.707
			c0,10.314,8.392,18.707,18.707,18.707c10.315,0,18.707-8.393,18.707-18.707C43.707,14.684,35.315,6.292,25,6.292z"/>
	</g>
	<g>
		<path fill="#E2ACEA" d="M25,31.944c-3.829,0-6.945-3.115-6.945-6.945s3.116-6.945,6.945-6.945c3.83,0,6.946,3.115,6.946,6.945
			S28.83,31.944,25,31.944z M25,19.938c-2.79,0-5.06,2.271-5.06,5.061S22.21,30.06,25,30.06c2.79,0,5.061-2.271,5.061-5.061
			S27.79,19.938,25,19.938z"/>
	</g>
	<g>
		<path fill="#E2ACEA" d="M33.228,37.299H16.773c-2.245,0-4.072-1.826-4.072-4.071V16.771c0-2.244,1.827-4.07,4.072-4.07h16.455
			c2.247,0,4.07,1.826,4.07,4.07v16.457C37.298,35.473,35.475,37.299,33.228,37.299z M16.773,14.586
			c-1.205,0-2.186,0.98-2.186,2.185v16.457c0,1.205,0.98,2.185,2.186,2.185h16.455c1.206,0,2.187-0.979,2.187-2.185V16.771
			c0-1.204-0.98-2.185-2.187-2.185H16.773z"/>
	</g>
	<circle fill="#E2ACEA" cx="32.116" cy="17.613" r="1.093"/>
</g>
</svg>
